<?xml version="1.0" encoding="UTF-8"?>
<svg version="1.1" xmlns="http://www.w3.org/2000/svg" width="3499" height="1086">
<path d="M0 0 C30.03 0 60.06 0 91 0 C94.34125 9.735 97.6825 19.47 101.125 29.5 C103.16820683 35.44698329 105.21149093 41.39393261 107.2578125 47.33984375 C107.50472965 48.05730207 107.7516468 48.7747604 108.0060463 49.51395988 C113.32215173 64.95735456 118.7028489 80.37740574 124.11732483 95.7865448 C128.45866265 108.14565202 132.77525434 120.51343521 137.09410858 132.88041306 C137.80962017 134.92925371 138.52520079 136.97807024 139.24078369 139.02688599 C147.25352724 161.96990054 155.23198048 184.92469621 163.1872406 207.88771057 C166.78210113 218.26173925 170.39137708 228.63075263 174 239 C184.14801265 210.18890501 193.99187884 181.28770317 203.61336851 152.29681921 C205.38922253 146.94879802 207.16923206 141.60216023 208.94888306 136.25540161 C213.42791405 122.79648332 217.90168807 109.33581998 222.375 95.875 C227.25701029 81.18469845 232.1400437 66.49474038 237.02882445 51.80669034 C239.13786994 45.46960394 241.24399182 39.13155581 243.34785247 32.79274631 C244.6451074 28.88613547 245.94480927 24.98034206 247.2451992 21.07477379 C247.84894703 19.25976968 248.45165258 17.44441851 249.05326653 15.62870598 C249.87045314 13.16283603 250.6912633 10.69820253 251.51303101 8.2338562 C251.75279801 7.50736527 251.99256501 6.78087435 252.23959768 6.03236854 C253.8859047 1.1140953 253.8859047 1.1140953 255 0 C257.02494231 -0.09409479 259.0531987 -0.11743122 261.08032227 -0.11352539 C263.03223228 -0.11341209 263.03223228 -0.11341209 265.02357483 -0.11329651 C266.45451902 -0.10818909 267.88546282 -0.10297308 269.31640625 -0.09765625 C270.7722926 -0.09579203 272.22817957 -0.09436815 273.68406677 -0.09336853 C277.52279379 -0.08954365 281.36148319 -0.07971364 285.20019531 -0.06866455 C289.11457816 -0.05844978 293.02896706 -0.05387077 296.94335938 -0.04882812 C304.62892343 -0.03809134 312.31445645 -0.02101529 320 0 C327.60087711 22.14623957 335.15204449 44.3070992 342.50048828 66.53857422 C345.24410302 74.82251749 348.02569718 83.09268281 350.85595703 91.34741211 C360.70858526 120.08729107 370.34068679 148.89899395 379.93289971 177.72667253 C382.12777122 184.32274983 384.32449662 190.91820931 386.5213201 197.51363671 C391.01616479 211.00844175 395.50886354 224.50396042 400 238 C401.7009515 235.44857276 402.59059697 233.6334579 403.56542969 230.79614258 C403.86103287 229.94277817 404.15663605 229.08941376 404.4611969 228.21018982 C404.77822067 227.28102249 405.09524445 226.35185516 405.421875 225.39453125 C405.92587074 223.93449425 405.92587074 223.93449425 406.44004822 222.44496155 C407.166201 220.33982803 407.89040384 218.23402111 408.61288452 216.12762451 C410.15585066 211.62929081 411.70818339 207.13420671 413.2598114 202.63885498 C414.05012109 200.34870515 414.83992294 198.05838002 415.62922668 195.7678833 C418.95206215 186.12634341 422.31142352 176.49800019 425.6875 166.875 C426.8206389 163.64204143 427.95329423 160.40891349 429.0859375 157.17578125 C429.53293755 155.90001724 429.53293755 155.90001724 429.9889679 154.59848022 C434.60471819 141.42258541 439.20875893 128.24259458 443.8125 115.0625 C444.04869678 114.38634518 444.28489357 113.71019035 444.52824783 113.01354599 C449.62157869 98.43277495 454.71056341 83.85055021 459.76953125 69.2578125 C460.14340469 68.17936569 460.51727814 67.10091888 460.90248108 65.98979187 C462.60977391 61.06357667 464.31553323 56.13683756 466.01879883 51.20922852 C471.93705434 34.11178755 477.97788612 17.06265599 484 0 C513.37 0 542.74 0 573 0 C572.33358755 3.33206227 571.70842628 6.09435615 570.59570312 9.22802734 C570.30960678 10.03884766 570.02351044 10.84966797 569.72874451 11.68505859 C569.25973473 12.99724365 569.25973473 12.99724365 568.78125 14.3359375 C568.45185928 15.26567383 568.12246857 16.19541016 567.78309631 17.15332031 C566.69231685 20.22850049 565.59631762 23.30179024 564.5 26.375 C563.72895042 28.54373461 562.95803786 30.71251794 562.18725586 32.88134766 C555.27342301 52.31376719 548.2561019 71.70852243 541.22419739 91.09844971 C537.23566105 102.1008317 533.27373045 113.11276407 529.3125 124.125 C522.78538427 142.26733617 516.24890598 160.40627725 509.70602036 178.5429306 C502.79756955 197.69297006 495.89336345 216.84452292 489 236 C481.8755433 255.79764568 474.73967 275.59116077 467.59909058 295.38299561 C462.67661466 309.0268518 457.75643271 322.67151942 452.84765625 336.3203125 C452.23475235 338.02420135 452.23475235 338.02420135 451.60946655 339.76251221 C449.70419117 345.05943374 447.79963767 350.35661253 445.89648438 355.65429688 C443.93726833 361.10514234 441.97219044 366.55383524 440 372 C439.6669989 372.91970581 439.3339978 373.83941162 438.99090576 374.7869873 C438.01698006 377.47126601 437.0386496 380.15389171 436.05859375 382.8359375 C435.764048 383.6479361 435.46950226 384.45993469 435.16603088 385.29653931 C433.11551659 390.88448341 433.11551659 390.88448341 432 392 C429.97505769 392.09409479 427.9468013 392.11743122 425.91967773 392.11352539 C423.96776772 392.11341209 423.96776772 392.11341209 421.97642517 392.11329651 C420.54548098 392.10818909 419.11453718 392.10297308 417.68359375 392.09765625 C416.2277074 392.09579203 414.77182043 392.09436815 413.31593323 392.09336853 C409.47720621 392.08954365 405.63851681 392.07971364 401.79980469 392.06866455 C397.88542184 392.05844978 393.97103294 392.05387077 390.05664062 392.04882812 C382.37107657 392.03809134 374.68554355 392.02101529 367 392 C359.90511083 372.06214351 352.95801402 352.08145309 346.1625061 332.03948975 C341.40819289 318.02179167 336.5866277 304.03020828 331.6875 290.0625 C325.43124455 272.22179616 319.3437177 254.32630682 313.28842163 236.41650391 C307.16820127 218.3199726 300.95448544 200.25887331 294.63085938 182.23242188 C294.33848389 181.39871567 294.0461084 180.56500946 293.74487305 179.70603943 C293.21135084 178.18578265 292.67709076 176.66578448 292.1418457 175.14613342 C290.37412634 170.11496361 288.6735108 165.06325503 287 160 C285.23603353 162.64594971 284.35224601 164.56128146 283.35864258 167.5234375 C283.04624634 168.44720688 282.7338501 169.37097626 282.4119873 170.32273865 C282.07622681 171.32998489 281.74046631 172.33723114 281.39453125 173.375 C281.03870972 174.42998184 280.68288818 175.48496368 280.31628418 176.57191467 C279.54730062 178.85275956 278.78021328 181.13424444 278.01480103 183.41629028 C275.97785984 189.48781961 273.92624895 195.55438618 271.875 201.62109375 C271.25387077 203.45939003 271.25387077 203.45939003 270.62019348 205.33482361 C266.92065714 216.26871371 263.1338835 227.17070458 259.3125 238.0625 C254.30307742 252.3510555 249.36955751 266.66317477 244.5 281 C238.07923272 299.89829149 231.53289176 318.75062453 224.94007874 337.5894928 C220.96552294 348.95014537 217.0148851 360.31911976 213.0625 371.6875 C210.731875 378.390625 208.40125 385.09375 206 392 C184.55 392 163.1 392 141 392 C132.97838101 371.37297974 132.97838101 371.37297974 129.42578125 361.26953125 C129.02420807 360.13567993 128.62263489 359.00182861 128.20889282 357.83361816 C127.35221679 355.41473438 126.49662423 352.99546662 125.64205933 350.57583618 C123.32846332 344.02717047 121.00498265 337.4820194 118.6796875 330.9375 C118.44232061 330.26927027 118.20495373 329.60104053 117.96039391 328.91256142 C113.02370483 315.0199826 107.99263068 301.16240306 102.9375 287.3125 C96.18120524 268.79505047 89.49286147 250.2548874 82.875 231.6875 C82.45985138 230.52278168 82.04470276 229.35806335 81.61697388 228.15805054 C81.20333588 226.99754181 80.78969788 225.83703308 80.36352539 224.64135742 C79.53404995 222.31427859 78.70454166 219.98721147 77.875 217.66015625 C77.46740952 216.51675278 77.05981903 215.3733493 76.63987732 214.19529724 C72.40814362 202.33016597 68.14526553 190.47630942 63.875 178.625 C63.32117645 177.08791382 63.32117645 177.08791382 62.75616455 175.51977539 C61.27290115 171.4034986 59.78941872 167.28730087 58.30557251 163.17123413 C55.75100067 156.08499672 53.19888491 148.9978791 50.6484375 141.91015625 C46.51709841 130.42914273 42.38359499 118.94890989 38.24920654 107.46899414 C37.16504105 104.45831207 36.08106539 101.44756174 34.99718475 98.43677711 C32.17347365 90.59317604 29.34848781 82.75003502 26.52230072 74.90732574 C25.8164595 72.94848833 25.11076954 70.98959647 24.40509033 69.03070068 C19.72392023 56.03786328 15.03133002 43.04949476 10.26953125 30.0859375 C9.91008926 29.10695999 9.55064728 28.12798248 9.18031311 27.11933899 C7.53013678 22.62765878 5.87562123 18.13764655 4.21411133 13.65014648 C3.64529411 12.10662684 3.07652453 10.56308965 2.5078125 9.01953125 C2.24962234 8.32689178 1.99143219 7.63425232 1.72541809 6.92062378 C0 2.22628791 0 2.22628791 0 0 Z " fill="#FFFFFF" transform="translate(1411,347)"/>
<path d="M0 0 C5.11860699 4.18898875 9.68350374 9.02498232 14.3289032 13.72090149 C15.76278753 15.151887 17.19776854 16.5817743 18.63374549 18.01065987 C22.56527435 21.92909693 26.48108645 25.86291583 30.39446032 29.79947317 C34.62195102 34.04652647 38.86389368 38.27910231 43.10406494 42.51348877 C50.44641299 49.84980796 57.77961129 57.19518869 65.10632896 64.54711342 C72.79312553 72.26030748 80.48488647 79.9684934 88.18335915 87.67003441 C88.66271821 88.14959205 89.14207727 88.62914968 89.63596237 89.12323937 C92.07072795 91.55896886 94.50557671 93.99461518 96.94045398 96.43023302 C114.17861594 113.67400596 131.40478961 130.92970986 148.62426758 148.19213867 C165.33130959 164.94082685 182.04498524 181.68285418 198.7668457 198.41674805 C199.53955675 199.19002094 199.53955675 199.19002094 200.32787812 199.97891551 C204.47242332 204.12646909 208.61699211 208.27399912 212.76160441 212.42148565 C230.65834604 230.33067009 248.54981825 248.24511783 266.44014209 266.16071304 C269.32802113 269.05264962 272.21600986 271.94447661 275.10409158 274.83621079 C285.70600867 285.45153736 296.30633139 296.06844906 306.90153988 306.69047252 C311.08346125 310.88296581 315.2661091 315.07472655 319.45087624 319.2643795 C323.28277058 323.10083396 327.11233606 326.93959731 330.94005392 330.78021862 C332.32394396 332.16799769 333.70865674 333.55495692 335.09428128 334.94100419 C347.64634685 347.49871997 347.64634685 347.49871997 352.72034788 353.49789339 C354.59017408 355.69276983 356.6173271 357.70731816 358.67504883 359.72509766 C359.52315628 360.56021881 360.37126373 361.39533997 361.24507141 362.25576782 C362.14001816 363.13300507 363.0349649 364.01024231 363.95703125 364.9140625 C364.91008835 365.85504699 365.86260698 366.79657713 366.81462097 367.73861694 C370.81286731 371.6947003 374.81367186 375.64806083 378.83129883 379.58447266 C404.86569064 405.10967405 404.86569064 405.10967405 412.3125 421.0625 C412.6331543 421.73112061 412.95380859 422.39974121 413.28417969 423.08862305 C414.21109023 425.05002363 415.11097449 427.02118468 416 429 C416.48339844 430.06734375 416.96679688 431.1346875 417.46484375 432.234375 C420.07856558 438.49459628 421.80672243 444.82731509 423.25 451.4375 C423.41338867 452.17589111 423.57677734 452.91428223 423.74511719 453.67504883 C426.07598646 465.16911685 426.14975492 476.96944672 426.14526367 488.65551758 C426.15030159 490.58273651 426.15030159 490.58273651 426.15544128 492.54888916 C426.16415968 496.02583115 426.16661393 499.50274845 426.16725707 502.97970033 C426.16797356 505.15914995 426.17011885 507.33859351 426.17275429 509.51804161 C426.18196124 517.14053107 426.18609428 524.76300321 426.18530273 532.38549805 C426.18470038 539.46338668 426.19529493 546.54119949 426.2110464 553.61906892 C426.22414858 559.72645129 426.22948564 565.8338089 426.22884732 571.9412052 C426.22859351 575.57592594 426.23138144 579.21057884 426.24202538 582.84528542 C426.25356331 586.8940612 426.24894319 590.94266732 426.24291992 594.99145508 C426.24853943 596.18075119 426.25415894 597.3700473 426.25994873 598.59538269 C426.22146379 608.7909804 425.48570433 617.48153548 418 625 C412.53525741 629.16312149 407.86135787 631.16043468 400.9375 631.375 C399.87402344 631.42398438 398.81054688 631.47296875 397.71484375 631.5234375 C387.00802244 630.01480022 379.97836338 622.68993874 372.70820618 615.31620789 C371.60430446 614.21520695 370.49930593 613.11530481 369.39331597 612.01640159 C366.37391073 609.01005469 363.37022205 605.98842951 360.36897886 602.96396601 C357.12311102 599.69849747 353.86275429 596.44755024 350.60418701 593.19476318 C344.22945938 586.82684341 337.86803411 580.44579286 331.51090089 574.06031378 C324.10328091 566.62080324 316.68191179 559.19507182 309.25980141 551.77002237 C296.01500415 538.51916371 282.7817648 525.25682374 269.55541992 511.98754883 C256.72856145 499.11909327 243.8950905 486.25728609 231.0534668 473.40356445 C230.26252403 472.61187348 229.47158127 471.8201825 228.65667055 471.00450089 C225.47714817 467.82200399 222.29760716 464.6395257 219.11803474 461.4570788 C205.39193795 447.71823582 191.67133896 433.97390302 177.9514527 420.2288585 C175.7329017 418.00632955 173.51422141 415.78392974 171.29550958 413.56156135 C163.52503934 405.77804963 155.7562448 397.99287633 147.99204341 390.20311078 C144.78224263 386.98275268 141.57172627 383.76311799 138.35909081 380.54558754 C135.41540378 377.59732886 132.47405199 374.64676071 129.53452208 371.69435737 C128.47363943 370.6295968 127.41194409 369.56564517 126.34933273 368.50260981 C121.23529907 363.38556623 116.22609205 358.22925109 111.51310366 352.73630553 C109.29403209 350.18989292 106.92234613 347.81584137 104.52471924 345.43811035 C104.020139 344.93620351 103.51555875 344.43429667 102.9956882 343.91718054 C101.33188741 342.26330858 99.6644778 340.61312563 97.99707031 338.96289062 C96.79196829 337.76627119 95.58713147 336.56938463 94.38253784 335.37225342 C91.80020099 332.80655463 89.21648533 330.24225532 86.63181305 327.6789093 C82.53229496 323.61222674 78.43891342 319.53940486 74.34686279 315.46520996 C73.65349044 314.77492407 72.96011809 314.08463819 72.24573445 313.37343454 C70.82843925 311.96244671 69.41115284 310.55145006 67.99387503 309.14044476 C58.47835244 299.66776286 48.95841741 290.19958691 39.42382812 280.74609375 C32.97655867 274.35356626 26.53844544 267.95196681 20.11036754 261.54013968 C16.71803071 258.15710976 13.32137594 254.77870203 9.91336823 251.41145325 C6.70121007 248.23760436 3.50136264 245.0518188 0.30990982 241.85715485 C-0.8517838 240.69839096 -2.01766068 239.54380024 -3.18839645 238.39417267 C-26.49120906 215.49240606 -41.13566469 185.54744018 -41.42880249 152.53770447 C-41.42616132 151.18545466 -41.42319051 149.83320547 -41.41992188 148.48095703 C-41.42728837 147.00714995 -41.43588192 145.53334859 -41.44558716 144.05955505 C-41.46752229 140.11155735 -41.47074878 136.16376994 -41.46883965 132.2157197 C-41.46871882 128.90289856 -41.47732666 125.59012023 -41.48561716 122.27731121 C-41.50474398 114.46088587 -41.50777185 106.64456731 -41.50097656 98.828125 C-41.49431834 90.79121618 -41.51729602 82.75476425 -41.55429029 74.71794808 C-41.58504077 67.78331732 -41.59634231 60.84883333 -41.59245348 53.91413581 C-41.59039439 49.78689657 -41.59573701 45.66001466 -41.62034607 41.53284073 C-41.64270473 37.65664735 -41.6406609 33.78119831 -41.62041855 29.90500069 C-41.6170264 28.49013114 -41.62201965 27.07521044 -41.63640213 25.66040993 C-41.71726268 17.11149385 -41.13565297 10.09013979 -36 3 C-25.45908174 -7.15094625 -12.10911128 -7.83468621 0 0 Z " fill="#7B02EA" transform="translate(266,230)"/>
<path d="M0 0 C2.63267446 1.9612313 4.88898493 4.21787431 7.18498707 6.55857468 C7.86458336 7.23120336 8.54417965 7.90383205 9.24436978 8.59684342 C11.52010714 10.85532689 13.77759928 13.13120225 16.03559875 15.40740967 C17.67940027 17.04616639 19.32429216 18.68382998 20.97017926 20.32049203 C25.49140874 24.82276196 29.99687687 29.34052288 34.49992836 33.86096406 C38.85859909 38.23405907 43.23143113 42.5929719 47.60270107 46.95346547 C57.09674057 56.42504425 66.57650358 65.91081042 76.05036594 75.40256644 C84.3458443 83.71361522 92.64616781 92.01978763 100.95131493 100.32117462 C101.502321 100.8719439 102.05332708 101.42271317 102.62103031 101.99017243 C104.85786143 104.22602859 107.09471547 106.46186182 109.33160377 108.69766078 C130.32162443 129.67759576 151.29743914 150.6716819 172.26664321 171.67242058 C190.87963286 190.31324225 209.50400311 208.94261804 228.13842773 227.56201172 C232.90621218 232.32597346 237.67398273 237.08994911 242.44163227 241.85404587 C243.32217148 242.73392835 243.32217148 242.73392835 244.22049936 243.63158624 C259.80290982 259.20274088 275.3760013 274.78320976 290.94624013 290.36653447 C292.62309822 292.04478109 294.29996022 293.7230238 295.97682799 295.40126075 C297.08915648 296.51449863 298.20147833 297.62774316 299.31379349 298.74099436 C307.60142269 307.03540572 315.89375098 315.32509911 324.18831825 323.61257172 C333.63002759 333.04629327 343.06437886 342.48730733 352.48933712 351.93776563 C357.29569952 356.75677884 362.10531699 361.57242159 366.92361641 366.37950325 C371.34087912 370.7866763 375.74868481 375.20308998 380.14935818 379.6268262 C381.73668568 381.21928479 383.3273296 382.80844657 384.92174009 384.39381346 C410.82171323 410.15915709 427.98465629 439.75938564 428.15774536 477.23530579 C428.15899029 478.58200063 428.16011548 479.92869559 428.16113281 481.27539062 C428.16576855 482.71184922 428.17079421 484.14830659 428.17617798 485.58476257 C428.18922525 489.46693315 428.19573103 493.34908651 428.20018864 497.23127556 C428.20312987 499.66027428 428.20723646 502.08926839 428.21169281 504.51826477 C428.22534323 512.12897705 428.23502368 519.73967869 428.2388947 527.35040236 C428.24337922 536.11686843 428.26095561 544.88317888 428.2898953 553.64959764 C428.31153396 560.44133842 428.32160003 567.23303545 428.32293582 574.02481031 C428.32398164 578.07489496 428.32984271 582.12483281 428.34775543 586.17488098 C428.36427562 589.98348961 428.36637264 593.79184164 428.35761642 597.6004734 C428.35684834 598.9936015 428.36115847 600.38674364 428.37107468 601.77983665 C428.42678516 610.09754003 428.38383389 617.12587657 423.4921875 624.171875 C416.45617347 631.037937 409.99731164 633.42225209 400.1875 633.53125 C392.07880298 632.1798005 386.39498499 628.13270638 380.75443459 622.37805367 C379.74343962 621.37706072 379.74343962 621.37706072 378.71202052 620.35584569 C376.46136318 618.12140302 374.22892153 615.86962039 371.9960022 613.61746216 C370.36783815 611.993628 368.73858179 610.37088844 367.10833013 608.74915016 C362.63497821 604.29279741 358.17736361 599.82098755 353.72217798 595.34648323 C349.40834973 591.01636958 345.08033107 586.70046129 340.75386818 582.38297921 C331.35867997 573.00637015 321.97767883 563.61566899 312.60246246 554.21909585 C304.39419423 545.99226202 296.18086534 537.77052071 287.96253586 529.55373764 C287.41714391 529.00843737 286.87175196 528.46313709 286.30983298 527.90131257 C284.09576624 525.687639 281.88167128 523.47399367 279.66753684 521.26038782 C258.89554329 500.49326555 238.13734385 479.71240565 217.38587825 458.924773 C198.96612851 440.47305697 180.53646055 422.03130745 162.09765625 403.59863281 C160.91454564 402.41590905 159.73143523 401.2331851 158.54832502 400.05046095 C157.67094921 399.17337216 157.67094921 399.17337216 156.77584863 398.2785644 C153.83119504 395.33486522 150.88656148 392.39114601 147.94194984 389.44740486 C147.36097137 388.86660018 146.77999289 388.28579549 146.181409 387.68739066 C130.76101582 372.27135853 115.34782241 356.84813181 99.93695772 341.42257488 C99.38827966 340.87337668 98.83960161 340.32417849 98.27429695 339.75833792 C97.45281051 338.93607247 97.45281051 338.93607247 96.61472838 338.09719559 C96.06809431 337.55004377 95.52146023 337.00289196 94.95826149 336.43915978 C93.85741804 335.33726824 92.75658065 334.23537063 91.65574936 333.13346693 C83.99588907 325.46623956 76.33340102 317.80164734 68.66912379 310.13883536 C58.78515008 300.25671188 48.90619816 290.36961204 39.03582884 280.47389896 C34.27880477 275.70491323 29.51935581 270.93842023 24.75342369 266.17833138 C20.38464078 261.81474641 16.02292346 257.44422257 11.66658334 253.06821643 C10.09523603 251.49215635 8.52140703 249.91856549 6.94476183 248.34780528 C-21.02942885 220.46790139 -38.96364205 189.26170672 -39.15774536 148.9077301 C-39.15886322 147.63936813 -39.15998108 146.37100616 -39.16113281 145.06420898 C-39.165772 143.68819041 -39.1707981 142.3121731 -39.17617798 140.93615723 C-39.18918959 137.22758612 -39.19572357 133.51903301 -39.20018864 129.81044269 C-39.20313489 127.4882965 -39.20724228 125.16615507 -39.21169281 122.84401131 C-39.22533199 115.56274232 -39.23501866 108.28148441 -39.2388947 101.00020355 C-39.24338057 92.62259795 -39.26096798 84.24515508 -39.2898953 75.86759895 C-39.31154754 69.36964255 -39.32160071 62.87173185 -39.32293582 56.37373978 C-39.3239804 52.50194352 -39.32981506 48.630301 -39.34775543 44.75854301 C-39.36429997 41.11816028 -39.36636099 37.47804592 -39.35761642 33.83763885 C-39.3564862 31.87731972 -39.37015004 29.91700922 -39.3843689 27.95674133 C-39.33737839 17.96390747 -38.06524647 10.1161294 -31.00390625 2.73046875 C-22.16892665 -4.89895808 -10.23787194 -5.10006306 0 0 Z " fill="#7B02EB" transform="translate(670,228)"/>
<path d="M0 0 C99 0 198 0 300 0 C300 26.73 300 53.46 300 81 C229.05 81 158.1 81 85 81 C85 105.42 85 129.84 85 155 C148.69 155 212.38 155 278 155 C278 181.4 278 207.8 278 235 C214.31 235 150.62 235 85 235 C85 260.74 85 286.48 85 313 C155.95 313 226.9 313 300 313 C300 339.4 300 365.8 300 393 C201 393 102 393 0 393 C0 263.31 0 133.62 0 0 Z " fill="#FFFFFF" transform="translate(2041,346)"/>
<path d="M0 0 C27.72 0 55.44 0 84 0 C84.33 57.42 84.66 114.84 85 174 C95.07028099 164.0865789 95.07028099 164.0865789 104.43286133 153.79418945 C107.4773877 150.30856486 110.80357714 147.09533175 114.09375 143.84375 C114.84410522 143.0971814 115.59446045 142.35061279 116.36755371 141.5814209 C119.54216504 138.42298888 122.72275916 135.27060721 125.90283203 132.11767578 C128.23940361 129.79930255 130.57287999 127.4778448 132.90625 125.15625 C133.6137439 124.45705444 134.32123779 123.75785889 135.0501709 123.03747559 C138.32028932 119.78329853 141.48641782 116.49420302 144.5 113 C148.17032816 108.74430995 152.09813505 104.79249957 156.09375 100.84375 C156.84410522 100.0971814 157.59446045 99.35061279 158.36755371 98.5814209 C161.54216504 95.42298888 164.72275916 92.27060721 167.90283203 89.11767578 C170.23940361 86.79930255 172.57287999 84.4778448 174.90625 82.15625 C175.6137439 81.45705444 176.32123779 80.75785889 177.0501709 80.03747559 C180.95472963 76.15195103 184.64183356 72.15673863 188.23864746 67.98620605 C191.30250625 64.53121636 194.59107058 61.30668269 197.875 58.0625 C198.60315918 57.33812744 199.33131836 56.61375488 200.08154297 55.86743164 C203.16056951 52.80457576 206.24558323 49.74777689 209.33007812 46.69042969 C211.59715458 44.44155883 213.86112966 42.18959762 216.125 39.9375 C216.81062012 39.26017822 217.49624023 38.58285645 218.20263672 37.88500977 C224.47458243 31.64456978 230.05771138 25.46353373 234.87695312 18.02148438 C241.67223457 8.5723901 249.03877969 0.78456043 260.953125 -1.27294922 C277.01393035 -3.22269185 293.37471884 -2.30690963 309.49401855 -1.64794922 C316.2095187 -1.38642423 322.92924921 -1.29229139 329.6484375 -1.171875 C342.77121743 -0.91648203 355.88489378 -0.51316705 369 0 C367.69619283 2.87374749 366.31275641 4.93660341 364.08333397 7.16276169 C363.48369123 7.76638653 362.88404849 8.37001136 362.26623476 8.99192786 C361.60670828 9.64562865 360.9471818 10.29932945 360.26766968 10.97283936 C359.56767337 11.67454451 358.86767707 12.37624966 358.14646876 13.09921861 C355.7942708 15.45471686 353.43498447 17.80298493 351.07568359 20.15136719 C349.39025147 21.83623532 347.70525932 23.52154368 346.02067566 25.20726013 C341.91650836 29.31194266 337.80776615 33.41200364 333.69699191 37.51006857 C328.91393387 42.27883219 324.13652851 47.05324185 319.35946997 51.82801417 C310.84023374 60.34287332 302.3165409 68.8532567 293.79003906 77.36083984 C285.50742282 85.62509763 277.22691007 93.8914537 268.94921875 102.16064453 C268.43896795 102.67036988 267.92871716 103.18009523 267.40300421 103.7052668 C264.84323491 106.26242603 262.28350692 108.81962661 259.72379947 111.37684774 C238.48893435 132.59097996 217.24675958 153.79778015 196 175 C196.93731106 176.25642566 197.87556822 177.51214554 198.81420898 178.76757812 C199.5977903 179.81661316 199.5977903 179.81661316 200.39720154 180.88684082 C202.87556082 184.15435561 205.46415923 187.32765407 208.0625 190.5 C209.20703143 191.90364568 210.35156268 193.30729152 211.49609375 194.7109375 C212.66397742 196.1406945 213.83194564 197.57038244 215 199 C221.20531484 206.60002981 227.40338042 214.20042518 233.4375 221.9375 C238.19256539 228.03346749 243.09029472 234.0047539 248.01708984 239.96240234 C251.68372768 244.39692245 255.31095116 248.85809345 258.890625 253.36328125 C261.67525684 256.84407105 264.49574972 260.29518783 267.3125 263.75 C271.40577197 268.77350767 275.45381992 273.82669754 279.4375 278.9375 C284.12071598 284.94290405 288.95081457 290.81850071 293.80834961 296.68334961 C297.43689126 301.07401898 301.00158717 305.50510105 304.5 310 C309.23133321 316.07797735 314.10880475 322.02722281 319.01733398 327.96264648 C322.68384643 332.39712075 326.31102259 336.85818335 329.890625 341.36328125 C332.11850904 344.1481363 334.36919246 346.91345116 336.62280273 349.67749023 C341.74887898 355.9649142 346.82684265 362.28303667 351.81103516 368.68359375 C354.3578412 371.9438039 356.9448617 375.16523457 359.57421875 378.359375 C360.47527344 379.45572266 360.47527344 379.45572266 361.39453125 380.57421875 C362.57127553 382.00220691 363.75214001 383.42681179 364.9375 384.84765625 C365.46730469 385.49089844 365.99710938 386.13414062 366.54296875 386.796875 C367.01758545 387.36760742 367.49220215 387.93833984 367.98120117 388.52636719 C369 390 369 390 369 392 C355.20488199 392.25753078 341.41013918 392.45047776 327.61310673 392.56993389 C321.20598391 392.62727659 314.80047883 392.70501414 308.39428711 392.82983398 C302.20848714 392.94960155 296.02424007 393.01517669 289.83736992 393.04364967 C287.48050935 393.06393197 285.12373124 393.10354206 282.76753426 393.16303062 C263.30894089 393.63465172 263.30894089 393.63465172 258.61700439 389.6214447 C256.31797066 386.84189135 254.66078575 384.18972318 253 381 C251.92150491 379.61263266 250.81569656 378.24525123 249.6640625 376.91796875 C244.57446105 370.67532485 239.51535526 364.41435822 234.5625 358.0625 C229.87916452 352.05718586 225.04918884 346.18150341 220.19165039 340.31665039 C216.10748266 335.37465665 212.12108479 330.36774396 208.18359375 325.30859375 C204.535149 320.63900995 200.77986172 316.06359115 197 311.5 C192.30706183 305.83401201 187.70211112 300.11428521 183.18359375 294.30859375 C179.535149 289.63900995 175.77986172 285.06359115 172 280.5 C167.76358927 275.38519741 163.57961396 270.24078147 159.5 265 C155.27971316 259.58667965 150.97752007 254.24511852 146.625 248.9375 C146.04169922 248.22271484 145.45839844 247.50792969 144.85742188 246.77148438 C144.29861328 246.09279297 143.73980469 245.41410156 143.1640625 244.71484375 C142.67373535 244.11792725 142.1834082 243.52101074 141.67822266 242.90600586 C139.55581575 240.49552714 137.28743307 238.25323073 135 236 C126.1822159 241.52389263 117.98807374 247.64259885 110.0625 254.375 C109.17299023 255.12968693 109.17299023 255.12968693 108.26551056 255.89962006 C92.05933845 269.92442513 83.69616365 284.18478917 81.86186218 305.73825073 C81.08512951 317.87259449 81.06604852 329.97433381 81.375 342.125 C81.40584309 343.34972771 81.43668617 344.57445541 81.4684639 345.83629608 C81.89616947 361.27093564 82.89276965 376.58308192 84 392 C56.28 392 28.56 392 0 392 C0 262.64 0 133.28 0 0 Z " fill="#FFFFFF" transform="translate(2443,347)"/>
<path d="M0 0 C22.11 0 44.22 0 67 0 C74.86984784 16.64507641 82.72603063 33.28676784 90.3125 50.0625 C95.952018 62.53237845 101.67211674 74.96281007 107.4375 87.375 C113.3507988 100.10773427 119.23678258 112.85194295 125.0625 125.625 C130.65668569 137.88933797 136.28363078 150.13805729 141.9375 162.375 C147.82532483 175.11913315 153.70361033 187.86753553 159.5625 200.625 C160.08564285 201.76409821 160.08564285 201.76409821 160.61935425 202.9262085 C162.37681274 206.75312019 164.13401996 210.58014719 165.89111328 214.40722656 C168.00867956 219.01922972 170.12723864 223.63077634 172.24609375 228.2421875 C172.59692017 229.00571533 172.94774658 229.76924316 173.3092041 230.5559082 C174.3727864 232.87061297 175.43638912 235.18530836 176.5 237.5 C184.30505028 254.48580281 184.30505028 254.48580281 188.1618042 262.8861084 C189.92013321 266.71584744 191.67877315 270.54544365 193.4375 274.375 C193.785849 275.133573 194.134198 275.892146 194.49310303 276.67370605 C198.50030405 285.39881312 202.51476804 294.12050369 206.54296875 302.8359375 C206.92127838 303.65447708 207.29958801 304.47301666 207.68936157 305.31636047 C208.25691666 306.54433601 208.25691666 306.54433601 208.8359375 307.79711914 C215.86618153 323.00803459 222.86479005 338.2321897 229.77612305 353.49755859 C232.61667212 359.76976535 235.47176449 366.033854 238.375 372.27734375 C238.89457275 373.39761963 239.41414551 374.51789551 239.94946289 375.67211914 C240.91258533 377.74516316 241.88022943 379.81611497 242.85327148 381.88452148 C243.48084351 383.23719116 243.48084351 383.23719116 244.12109375 384.6171875 C244.4864624 385.39690918 244.85183105 386.17663086 245.22827148 386.97998047 C246 389 246 389 246 392 C215.97 392 185.94 392 155 392 C140.13477377 359.98258966 140.13477377 359.98258966 135.5625 349.6875 C134.49803165 347.29789074 133.43310767 344.90849251 132.3671875 342.51953125 C131.9648716 341.61726807 131.9648716 341.61726807 131.5544281 340.69677734 C129.41838851 335.91509568 127.24795757 331.14957211 125.0703125 326.38671875 C124.09382382 324.24560361 123.11767766 322.10433256 122.14157104 319.96304321 C121.50938394 318.57946281 120.87523141 317.19677863 120.23904419 315.81503296 C119.35618384 313.89715941 118.48017201 311.97629191 117.60546875 310.0546875 C117.10168701 308.95624512 116.59790527 307.85780273 116.07885742 306.72607422 C115 304 115 304 115 301 C60.88 301 6.76 301 -49 301 C-50.485 305.455 -50.485 305.455 -52 310 C-53.25572426 312.89039291 -54.53679971 315.73749437 -55.88671875 318.58203125 C-56.44840508 319.78278542 -56.44840508 319.78278542 -57.0214386 321.00779724 C-57.82375331 322.72255718 -58.62810195 324.43636671 -59.43432617 326.14929199 C-61.57554553 330.69974813 -63.70106113 335.25749993 -65.82421875 339.81640625 C-66.25628632 340.74395721 -66.68835388 341.67150818 -67.1335144 342.62716675 C-72.24383838 353.63042527 -77.14327368 364.72659755 -82.01049805 375.83911133 C-82.3262529 376.55688248 -82.64200775 377.27465363 -82.96733093 378.01417542 C-83.5498392 379.33874155 -84.12960253 380.66452018 -84.70588684 381.99180603 C-85.44558371 383.67243418 -86.22164547 385.33692253 -87 387 C-87.35056961 387.87973984 -87.70113922 388.75947968 -88.06233215 389.6658783 C-90 392 -90 392 -93.73954773 392.60127258 C-95.3298378 392.61578893 -96.92052242 392.60242238 -98.51049805 392.56762695 C-99.81325684 392.56872215 -99.81325684 392.56872215 -101.14233398 392.56983948 C-104.01609528 392.56635304 -106.88824028 392.52744262 -109.76171875 392.48828125 C-111.75282404 392.47895687 -113.74394079 392.47183899 -115.73506165 392.46684265 C-120.97803366 392.44774338 -126.2203141 392.39861707 -131.4630127 392.34332275 C-136.81183516 392.29219356 -142.16076928 392.26934213 -147.50976562 392.24414062 C-158.00681443 392.1905014 -168.50334973 392.10515296 -179 392 C-178.53273757 390.57094638 -178.06309564 389.14267066 -177.59246826 387.71472168 C-177.33119518 386.91926689 -177.0699221 386.1238121 -176.80073166 385.30425262 C-175.71917825 382.19188378 -174.37211112 379.25360597 -172.953125 376.28125 C-172.66557846 375.67425766 -172.37803192 375.06726532 -172.08177185 374.44187927 C-171.46421315 373.1390299 -170.84448582 371.83720656 -170.2227478 370.53634644 C-168.52344013 366.97902242 -166.84245409 363.41304796 -165.16015625 359.84765625 C-164.81245682 359.11156631 -164.46475739 358.37547638 -164.10652161 357.61708069 C-160.55819435 350.09118266 -157.11574949 342.51866399 -153.6875 334.9375 C-148.23570937 322.89418414 -142.73258885 310.87565216 -137.1875 298.875 C-136.81220154 298.06261871 -136.43690308 297.25023743 -136.05023193 296.41323853 C-132.98314906 289.77478573 -129.9135725 283.13748682 -126.84387207 276.50024414 C-124.16558547 270.70903299 -121.48831157 264.91735517 -118.8125 259.125 C-118.24828339 257.90375427 -118.24828339 257.90375427 -117.67266846 256.65783691 C-112.2897925 245.00289885 -106.95678875 233.3263369 -101.65982056 221.63214111 C-95.93811249 209.00544131 -90.11207556 196.42821831 -84.27175903 183.85601807 C-78.9634823 172.42673435 -73.6967552 160.98041346 -68.5 149.5 C-62.50163294 136.24870544 -56.39968355 123.04717254 -50.27148438 109.85546875 C-44.66035308 97.77408559 -39.10272478 85.67052937 -33.61056519 73.53463745 C-27.39611516 59.80782705 -21.05815534 46.13905244 -14.6953125 32.48046875 C-14.11824806 31.23951698 -14.11824806 31.23951698 -13.52952576 29.97349548 C-12.82774932 28.46439728 -12.12485014 26.95582012 -11.42030334 25.44801331 C-7.50024426 17.01336662 -3.77936814 8.50357832 0 0 Z M32 122 C22.73180689 142.03952367 13.5620388 162.11623261 4.63671875 182.31103516 C0.22116345 192.29531227 -4.27573237 202.23628211 -8.90380859 212.12426758 C-9.31711426 213.0139624 -9.73041992 213.90365723 -10.15625 214.8203125 C-10.51525391 215.58617676 -10.87425781 216.35204102 -11.24414062 217.14111328 C-12.12555691 218.97433496 -12.12555691 218.97433496 -12 221 C17.7 221 47.4 221 78 221 C75.9791846 214.93755379 73.92757523 209.33690878 71.2265625 203.609375 C70.86646088 202.83498581 70.50635925 202.06059662 70.13534546 201.26274109 C69.36684699 199.61104887 68.59626031 197.96032687 67.82373047 196.31051636 C65.78111519 191.94744228 63.75459201 187.57689919 61.7265625 183.20703125 C61.11835663 181.89793541 61.11835663 181.89793541 60.49786377 180.56239319 C56.93418203 172.88248707 53.44893258 165.16950352 50 157.4375 C49.4855835 156.28451416 48.97116699 155.13152832 48.44116211 153.94360352 C47.44721894 151.71567838 46.4533209 149.48773311 45.45947266 147.25976562 C41.68128014 138.82108605 37.83884746 130.41122427 34 122 C33.34 122 32.68 122 32 122 Z " fill="#FFFFFF" transform="translate(3028,347)"/>
<path d="M0 0 C1.15479343 -0.00785502 1.15479343 -0.00785502 2.33291602 -0.01586872 C4.902885 -0.03082516 7.47265412 -0.03157291 10.04266357 -0.03224182 C11.88937209 -0.03986627 13.73607744 -0.04829426 15.58277893 -0.0574646 C20.59327201 -0.07938908 25.60370407 -0.08820583 30.61423969 -0.09329104 C33.74712406 -0.09693723 36.8799925 -0.10317868 40.01287079 -0.11029243 C50.94972942 -0.13478043 61.88654066 -0.14783729 72.82342529 -0.15138245 C83.00611819 -0.15501654 93.18850946 -0.18490461 103.3711102 -0.22678703 C112.12291786 -0.26151799 120.87462571 -0.27693138 129.6265018 -0.27762848 C134.84934573 -0.27842037 140.07188234 -0.28711884 145.29465485 -0.31562614 C150.20974549 -0.34185457 155.12427506 -0.34398529 160.03940392 -0.3279705 C161.83806014 -0.32615978 163.63674898 -0.33281258 165.43533516 -0.34878922 C175.59403968 -0.43348899 184.72770813 -0.4214085 192.76257706 6.68148136 C198.0349359 12.43250858 199.62244038 18.66230266 199.55827332 26.23054504 C199.56635162 27.38767846 199.56635162 27.38767846 199.57459313 28.56818831 C199.5888315 31.13749719 199.58177931 33.70628786 199.574646 36.27561951 C199.58035176 38.12409884 199.58731682 39.97257465 199.59544373 41.82104492 C199.6133684 46.83145641 199.6122079 51.84169269 199.60650134 56.8521266 C199.60340818 61.0394204 199.60950345 65.22668062 199.61554009 69.41396964 C199.62958174 79.29512751 199.62802729 89.17619892 199.61663818 99.05735779 C199.60516 109.24062762 199.61922848 119.42363399 199.64603466 129.6068691 C199.66820974 138.35953891 199.67482487 147.11212613 199.66895825 155.86482203 C199.66559148 161.08811605 199.66798504 166.31124124 199.68520927 171.53451157 C199.70070486 176.44793139 199.69669379 181.3609618 199.67790413 186.27436638 C199.67422535 188.07343027 199.67730592 189.87252318 199.68778992 191.67156029 C199.79056789 210.77243537 199.79056789 210.77243537 193.20574951 218.61399841 C192.22928467 219.40483826 192.22928467 219.40483826 191.23309326 220.21165466 C190.58469482 220.7569281 189.93629639 221.30220154 189.26824951 221.86399841 C184.70770936 224.92983639 180.82166143 225.58891687 175.35809326 225.64915466 C174.19664795 225.67751404 173.03520264 225.70587341 171.83856201 225.73509216 C163.4535763 224.68138789 158.08220851 219.76900127 152.3260498 213.93754578 C151.57883014 213.19656607 150.83161047 212.45558637 150.06174779 211.69215274 C147.57120137 209.21750589 145.09513279 206.72887417 142.61883545 204.23997498 C140.83189224 202.45845418 139.0440997 200.67778495 137.25552368 198.89790344 C132.9107026 194.56941325 128.57532233 190.2316635 124.24447152 185.88920072 C120.72324999 182.35893088 117.19812569 178.83260261 113.67020416 175.30902863 C113.16732723 174.80676462 112.66445029 174.30450062 112.14633466 173.7870165 C111.12460477 172.76656556 110.10286594 171.74612358 109.08111826 170.72569045 C99.50967757 161.16564497 89.95051612 151.59339704 80.39553443 142.01690516 C72.20378025 133.80728097 64.0015955 125.60820062 55.79168701 117.41673279 C46.24852177 107.89499298 36.71190403 98.3667729 27.1855824 88.82817912 C26.16896973 87.81029231 25.15234873 86.79241383 24.1357193 85.77454376 C23.63557398 85.27378134 23.13542866 84.77301892 22.62012742 84.25708188 C19.10198181 80.73548839 15.57922805 77.21854582 12.05464935 73.70339203 C7.30749928 68.9686579 2.57112564 64.22339377 -2.15826035 59.4709053 C-3.89466273 57.72921784 -5.63447079 55.99091802 -7.37792587 54.25629044 C-9.75893055 51.88623158 -12.1272482 49.50416861 -14.49279785 47.11869812 C-15.18384212 46.43657674 -15.87488638 45.75445536 -16.58687139 45.05166364 C-21.62030479 39.93580797 -25.28508409 34.92431828 -26.36065674 27.71165466 C-26.28451168 19.33569779 -25.80966473 13.53387758 -19.99346924 7.30931091 C-13.86577844 1.56900287 -8.37211631 -0.02843429 0 0 Z " fill="#7B02EA" transform="translate(898.8294067382813,224.72584533691406)"/>
<path d="M0 0 C8.43499855 7.58858001 15.09672422 18.78618465 16.21923828 30.23632812 C17.02734385 46.85828194 14.38350162 60.38281092 3.0390625 73.21875 C-6.99447284 82.91659085 -19.74724713 87.79110174 -33.5625 88.25 C-48.78757889 87.8165458 -60.78374615 81.70979056 -71.1875 70.8125 C-80.09019513 60.36382787 -83.52747814 48.60518447 -83.25 35.078125 C-82.00734817 19.77797434 -75.16651819 7.85916231 -63.6171875 -2.04296875 C-44.2574171 -16.64060913 -18.68623115 -14.3128579 0 0 Z M-63.234375 17.53125 C-69.18452888 25.85093419 -70.08266318 35.01670579 -69 45 C-66.97370356 55.25225483 -60.60678636 62.55163286 -52.5625 68.9375 C-44.88385696 73.90396178 -35.95250754 75.03075443 -27 74 C-16.59407042 71.54092185 -8.8420917 66.1273903 -2.54296875 57.55078125 C2.64531529 48.97369396 4.50754532 39.78841415 2.33984375 30.02734375 C-0.69529962 19.63427707 -6.56174783 11.46687494 -16 6 C-34.04280015 -2.93786859 -50.77990918 2.821251 -63.234375 17.53125 Z " fill="#FFFFFF" transform="translate(3287,358)"/>
<path d="M0 0 C3.96 -0.061875 7.92 -0.12375 12 -0.1875 C13.23234375 -0.21481201 14.4646875 -0.24212402 15.734375 -0.27026367 C22.22415926 -0.3191262 27.14813555 0.11171135 33 3 C37.82368068 8.07104892 38.27995666 11.4980182 38.2265625 18.296875 C37.85637532 22.71359098 36.03431233 24.96568767 33 28 C33.34487655 32.20455885 35.12167793 35.49397336 37.0625 39.1875 C40 44.79294118 40 44.79294118 40 47 C35.38 47 30.76 47 26 47 C25.36384766 45.39318359 25.36384766 45.39318359 24.71484375 43.75390625 C24.12384855 42.35615571 23.53131985 40.95905286 22.9375 39.5625 C22.66228516 38.85544922 22.38707031 38.14839844 22.10351562 37.41992188 C21.81025391 36.74638672 21.51699219 36.07285156 21.21484375 35.37890625 C20.95823975 34.7557251 20.70163574 34.13254395 20.43725586 33.49047852 C18.52357626 31.20046148 18.52357626 31.20046148 12 31 C12 36.28 12 41.56 12 47 C8.04 47 4.08 47 0 47 C0 31.49 0 15.98 0 0 Z M12 10 C12 13.96 12 17.92 12 22 C13.588125 22.061875 15.17625 22.12375 16.8125 22.1875 C17.70582031 22.22230469 18.59914063 22.25710938 19.51953125 22.29296875 C22.02833459 22.19860489 22.02833459 22.19860489 23.8046875 20.7109375 C25.769481 17.89858602 25.30077444 15.30851882 25 12 C23.16262173 9.72783152 23.16262173 9.72783152 20.3984375 9.8046875 C19.40070312 9.82789063 18.40296875 9.85109375 17.375 9.875 C15.60125 9.91625 13.8275 9.9575 12 10 Z " fill="#FFFFFF" transform="translate(3236,372)"/>
<path d="M0 0 C0.66 0.33 1.32 0.66 2 1 C-0.97 3.97 -3.94 6.94 -7 10 C-7 6.04435836 -5.59478606 4.89133304 -3 2 C-2.01 1.34 -1.02 0.68 0 0 Z " fill="#6002B8" transform="translate(236,228)"/>
</svg>
